<?xml version="1.0" encoding="UTF-8" standalone="no"?>
<!-- Created with Inkscape (http://www.inkscape.org/) -->

<svg
   xmlns:dc="http://purl.org/dc/elements/1.1/"
   xmlns:cc="http://creativecommons.org/ns#"
   xmlns:rdf="http://www.w3.org/1999/02/22-rdf-syntax-ns#"
   xmlns:svg="http://www.w3.org/2000/svg"
   xmlns="http://www.w3.org/2000/svg"
   xmlns:sodipodi="http://sodipodi.sourceforge.net/DTD/sodipodi-0.dtd"
   xmlns:inkscape="http://www.inkscape.org/namespaces/inkscape"
   width="210mm"
   height="297mm"
   viewBox="0 0 744.09448819 1052.3622047"
   id="svg5701"
   version="1.1"
   inkscape:version="0.91 r13725"
   sodipodi:docname="kaefer.svg">
  <defs
     id="defs5703" />
  <sodipodi:namedview
     id="base"
     pagecolor="#ffffff"
     bordercolor="#666666"
     borderopacity="1.0"
     inkscape:pageopacity="0.0"
     inkscape:pageshadow="2"
     inkscape:zoom="0.49497475"
     inkscape:cx="436.20777"
     inkscape:cy="500.42971"
     inkscape:document-units="px"
     inkscape:current-layer="layer1"
     showgrid="false"
     inkscape:window-width="1920"
     inkscape:window-height="1017"
     inkscape:window-x="1912"
     inkscape:window-y="116"
     inkscape:window-maximized="1" />
  <metadata
     id="metadata5706">
    <rdf:RDF>
      <cc:Work
         rdf:about="">
        <dc:format>image/svg+xml</dc:format>
        <dc:type
           rdf:resource="http://purl.org/dc/dcmitype/StillImage" />
        <dc:title></dc:title>
      </cc:Work>
    </rdf:RDF>
  </metadata>
  <g
     inkscape:label="Layer 1"
     inkscape:groupmode="layer"
     id="layer1">
    <g
       id="g6262"
       transform="translate(12.121832,-27.274119)"
       style="stroke:#000000;stroke-opacity:1;stroke-width:20;stroke-miterlimit:4;stroke-dasharray:none">
      <path
         style="fill:#76dcfe;stroke:#000000;stroke-opacity:1;stroke-width:20;stroke-miterlimit:4;stroke-dasharray:none"
         d="m 160.7731,577.19888 c -19.14693,-3.42654 -37.91199,-16.61066 -47.0864,-33.0824 l -2.78489,-5 -10.59009,-0.72978 c -12.153314,-0.83749 -15.462263,-2.41041 -18.844452,-8.95772 -1.823436,-3.52985 -3.196861,-4.6875 -5.561195,-4.6875 -4.667336,0 -11.208345,-3.0942 -13.521081,-6.39609 -2.619972,-3.74054 -2.619972,-12.21729 0,-15.95782 2.403376,-3.4313 8.901362,-6.39609 14.01843,-6.39609 4.472705,0 5.952383,-1.68255 7.145361,-8.125 1.653744,-8.93074 9.033424,-27.00519 15.171993,-37.15954 18.167354,-30.05222 42.920774,-47.45313 84.795904,-59.60893 20.45635,-5.93822 56.30025,-11.35183 75.18233,-11.35502 10.44145,-0.001 9.86899,0.5263 19.6506,-18.12651 3.24475,-6.1875 9.01255,-15.66255 12.81734,-21.05566 6.27113,-8.88902 7.75385,-10.20173 15.86124,-14.04263 18.45544,-8.74329 40.83234,-12.49451 86.33941,-14.47379 24.51485,-1.06623 36.67859,-1.05201 50,0.0585 67.5924,5.63469 123.7189,32.51088 172.81759,82.75374 32.0319,32.77835 39.76281,46.05788 49.71585,85.39769 l 3.82339,15.11215 10.6236,0.67764 c 15.1613,0.9671 19.9986,4.43141 19.9986,14.32236 0,9.2809 -6.62125,14.375 -18.68445,14.375 -5.97544,0 -6.37657,0.21646 -8.68619,4.6875 -4.14418,8.02236 -5.44081,8.3711 -32.92081,8.85426 l -24.66644,0.43369 -5.70721,8.58488 c -9.14537,13.75658 -19.9224,22.08547 -35.63262,27.53817 -11.44731,3.97312 -30.94715,3.97135 -42.45228,-0.004 -15.07377,-5.20824 -26.76803,-14.27185 -35.64754,-27.62852 l -5.79445,-8.71623 -127.36591,0 -127.36592,0 -6.24698,9.25762 c -8.82734,13.08157 -20.452,22.06483 -34.81303,26.9027 -8.80481,2.96614 -24.56861,4.16149 -33.5897,2.54708 z m 28.32353,-31.00739 c 6.97645,-3.60898 15.71037,-11.88255 18.75113,-17.76275 1.26217,-2.44076 2.85508,-7.50326 3.53983,-11.25 4.20486,-23.00809 -12.81064,-44.58501 -36.249,-45.96643 -20.14565,-1.18736 -37.04806,11.96902 -41.19957,32.06862 -3.71895,18.00537 6.93872,36.89378 24.88334,44.10032 8.33108,3.34577 22.58999,2.78539 30.27427,-1.18976 z m 380.24101,0.016 c 24.97407,-12.21812 30.62292,-44.78647 11.0608,-63.77086 -8.45244,-8.20279 -15.11711,-10.82015 -27.55181,-10.82015 -8.57715,0 -11.7556,0.5569 -16.49102,2.8894 -27.17052,13.38329 -30.78166,50.25982 -6.62078,67.61085 8.37083,6.01149 13.74243,7.61377 24.3618,7.26689 6.76948,-0.22114 11.00528,-1.10384 15.24101,-3.1761 z M 408.84663,398.24148 c 2.11447,-2.11447 2.11447,-47.38553 0,-49.5 -3.56373,-3.56372 -58.3193,-0.6128 -76.42364,4.11866 -18.75588,4.90175 -21.20621,7.07801 -32.70588,29.04763 -5.32251,10.16843 -5.87058,11.91552 -4.6076,14.6875 l 1.43352,3.14621 55.4018,0 c 41.42362,0 55.78026,-0.37846 56.9018,-1.5 z m 120,0 c 3.25791,-3.25791 1.55497,-7.26911 -6.41024,-15.09907 -13.7384,-13.50514 -39.8482,-24.98343 -70.11751,-30.82481 -17.28224,-3.33512 -23.95607,-3.37627 -25.67828,-0.15829 -0.73956,1.38189 -1.29397,11.11378 -1.29397,22.71407 0,17.13171 0.32255,20.65266 2.06873,22.58217 1.93704,2.1404 5.18368,2.28593 51,2.28593 36.39099,0 49.31569,-0.38442 50.43127,-1.5 z"
         id="path6264"
         inkscape:connector-curvature="0" />
    </g>
    <path
       style="fill:#000000"
       d=""
       id="path6260"
       inkscape:connector-curvature="0" />
  </g>
</svg>
