<?xml version="1.0" encoding="UTF-8" standalone="no"?>
<!-- Created with Inkscape (http://www.inkscape.org/) -->

<svg
   xmlns:dc="http://purl.org/dc/elements/1.1/"
   xmlns:cc="http://creativecommons.org/ns#"
   xmlns:rdf="http://www.w3.org/1999/02/22-rdf-syntax-ns#"
   xmlns:svg="http://www.w3.org/2000/svg"
   xmlns="http://www.w3.org/2000/svg"
   xmlns:xlink="http://www.w3.org/1999/xlink"
   xmlns:sodipodi="http://sodipodi.sourceforge.net/DTD/sodipodi-0.dtd"
   xmlns:inkscape="http://www.inkscape.org/namespaces/inkscape"
   width="210mm"
   height="297mm"
   viewBox="0 0 744.09448819 1052.3622047"
   id="svg2"
   version="1.1"
   inkscape:version="0.91 r13725"
   sodipodi:docname="app_icon_rounded_corners.svg"
   inkscape:export-filename="C:\Users\Johannes\app_icon@3x.png"
   inkscape:export-xdpi="23.095722"
   inkscape:export-ydpi="23.095722">
  <defs
     id="defs4">
    <linearGradient
       inkscape:collect="always"
       id="linearGradient4360">
      <stop
         style="stop-color:#00c9f6;stop-opacity:1"
         offset="0"
         id="stop4362" />
      <stop
         style="stop-color:#9aedff;stop-opacity:1"
         offset="1"
         id="stop4364" />
    </linearGradient>
    <linearGradient
       inkscape:collect="always"
       xlink:href="#linearGradient4360"
       id="linearGradient4366"
       x1="692.96466"
       y1="807.90527"
       x2="692.96466"
       y2="254.34169"
       gradientUnits="userSpaceOnUse"
       gradientTransform="translate(-16,0)" />
  </defs>
  <sodipodi:namedview
     id="base"
     pagecolor="#ffffff"
     bordercolor="#666666"
     borderopacity="1.0"
     inkscape:pageopacity="0.0"
     inkscape:pageshadow="2"
     inkscape:zoom="0.7"
     inkscape:cx="216.51631"
     inkscape:cy="498.22684"
     inkscape:document-units="px"
     inkscape:current-layer="layer1"
     showgrid="false"
     inkscape:window-width="1920"
     inkscape:window-height="1017"
     inkscape:window-x="1912"
     inkscape:window-y="116"
     inkscape:window-maximized="1" />
  <metadata
     id="metadata7">
    <rdf:RDF>
      <cc:Work
         rdf:about="">
        <dc:format>image/svg+xml</dc:format>
        <dc:type
           rdf:resource="http://purl.org/dc/dcmitype/StillImage" />
        <dc:title></dc:title>
      </cc:Work>
    </rdf:RDF>
  </metadata>
  <g
     inkscape:label="Layer 1"
     inkscape:groupmode="layer"
     id="layer1">
    <rect
       style="fill:url(#linearGradient4366);fill-opacity:1;stroke:none;stroke-width:14;stroke-linecap:round;stroke-miterlimit:4;stroke-dasharray:none;stroke-opacity:1"
       id="rect4250"
       width="701.42859"
       height="701.42859"
       x="22.57143"
       y="166.93364"
       ry="155.71429" />
    <path
       style="fill:#ffffff;fill-opacity:1;stroke:none;stroke-width:14;stroke-linecap:round;stroke-miterlimit:4;stroke-dasharray:none;stroke-opacity:1"
       d="m 255.34329,372.88419 33.18497,-26 85.18496,-6 85.18496,6 33.18497,26 0,61.36338 -236.73986,0 z"
       id="rect4349"
       inkscape:connector-curvature="0"
       sodipodi:nodetypes="cccccccc" />
    <rect
       style="fill:#ffffff;fill-opacity:1;stroke:none;stroke-width:14;stroke-linecap:round;stroke-miterlimit:4;stroke-dasharray:none;stroke-opacity:1"
       id="rect4248"
       width="291.02557"
       height="47.077667"
       x="228.20042"
       y="609.45563" />
    <path
       inkscape:connector-curvature="0"
       id="path4235"
       d="m 193.20015,694.02294 c -8.73701,-9.10161 -0.6401,-16.25393 -3.413,-38.78372 -0.96675,-7.85479 -12.61173,-11.87642 -13.56158,-12.17362 -3.17989,-0.99494 -11.96592,-2.64164 -13.27091,-6.76409 -1.2314,-3.88998 -1.1285,-4.75488 1.13416,-9.53274 2.47135,-5.21855 2.52833,-5.25824 8.30453,-5.78421 l 5.81612,-0.52959 0.58349,-12.18073 c 0.63681,-13.29365 0.34648,-14.41677 -7.39272,-28.59822 l -3.17918,-5.82556 1.55893,-19.88654 1.55895,-19.88652 8.35627,-16.65565 8.35628,-16.65564 9.37809,-7.94395 9.37811,-7.94395 13.76952,-0.5296 13.76951,-0.52959 0.54262,-18.00629 c 0.29844,-9.90346 0.90899,-18.58045 1.35679,-19.28219 0.44778,-0.70176 1.99295,-9.04291 3.43368,-18.53589 1.44074,-9.49299 4.94939,-28.22263 7.79701,-41.62143 l 5.17748,-24.36144 6.20452,-5.58077 c 8.31431,-7.47845 23.45758,-15.06388 39.5691,-19.82056 15.69762,-4.6345 55.75764,-10.08165 74.14354,-10.08165 18.3859,0 58.44592,5.44715 74.14354,10.08165 16.12736,4.76137 31.27054,12.35043 39.54987,19.82056 l 6.18529,5.58077 5.21815,24.36144 c 2.86999,13.3988 6.15717,30.65836 7.30484,38.35458 1.14769,7.69622 2.62055,16.03737 3.27302,18.53588 0.65248,2.49852 1.49317,12.64559 1.86818,22.54905 l 0.68185,18.00629 13.76951,0.52959 13.76952,0.5296 9.37811,7.94395 9.37809,7.94395 8.38693,16.71685 8.38693,16.71685 1.54906,19.79788 1.54906,19.79789 -3.38877,6.38259 c -7.95445,14.98181 -7.9023,14.77955 -7.24365,28.09607 l 0.60246,12.18073 5.81612,0.52959 c 5.7762,0.52597 5.83318,0.56566 8.30453,5.78421 2.26266,4.77786 2.36556,5.64276 1.13416,9.53274 -1.29961,4.10547 -12.65489,5.76859 -15.81223,6.75525 -0.91356,0.28548 -1.89192,4.43103 -2.84698,12.06345 -2.85653,22.82811 -5.36286,29.75709 -14.15775,39.14055 l -4.49269,4.79335 -14.84003,0 c -8.16201,0 -15.72699,-0.47469 -16.81105,-1.05486 -3.66394,-1.96089 -4.23763,-15.66863 -6.56428,-34.42812 -1.16402,-9.38536 -4.61867,-9.53811 -7.60929,-9.88024 -6.31829,-0.72281 -7.94665,0.44008 -8.71378,6.22296 -0.86921,6.55248 -2.18028,7.36446 -11.89117,7.36446 -7.83658,0 -5.26708,-0.55179 -5.26708,-5.82557 0,-5.53672 -3.96343,-5.8267 -14.88907,-5.80934 -5.61759,0.008 -10.74311,0.36639 -11.39002,0.79439 -0.6469,0.428 -1.95456,2.29758 -2.90588,4.15463 -2.09576,4.09102 -0.22429,3.78836 -41.66211,6.73738 l -30.91551,2.20017 -31.04731,-2.186 c -41.36473,-2.91245 -39.68853,-2.64167 -41.79394,-6.75155 -0.95133,-1.85705 -2.25899,-3.72663 -2.90588,-4.15463 -0.64692,-0.428 -5.80183,-0.7855 -11.45535,-0.79439 l -10.27913,-0.0162 -0.67009,3.97198 c -1.34402,7.9667 -1.00324,7.67915 -9.09966,7.67915 -9.75515,0 -7.67387,-0.80732 -8.5437,-7.36445 -0.76714,-5.78289 -5.78492,-6.94579 -12.10319,-6.22297 -2.99062,0.34213 -3.05586,0.49488 -4.21988,9.88024 -2.32665,18.7595 -13.99338,19.19989 -17.65731,21.16077 -1.08406,0.58018 0.16366,0.40123 -6.80088,4.4787 l -16.81325,9.84351 -4.82962,-5.03117 z m 243.98211,-48.79805 c 17.76797,-0.61629 32.70323,-1.50114 33.18946,-1.96633 0.48625,-0.4652 0.72456,-1.92944 0.5296,-3.25389 l -0.35447,-2.40808 -97.97539,0.005 -97.97539,0.005 0,3.0753 0,3.07531 14.82871,0.7809 c 53.40743,2.81249 82.5652,2.94802 147.75748,0.68677 z m -168.86251,-5.64143 c 0.32458,-1.29323 0.43961,-4.45795 0.25564,-7.03272 -0.30237,-4.23195 -0.61642,-4.71382 -3.27095,-5.01886 -5.75593,-0.66143 -7.45068,10.30959 -2.20885,14.29901 2.17847,1.65798 4.49397,0.66184 5.22416,-2.24743 z m 214.40782,1.52578 c 1.37683,-1.37683 2.11839,-3.53064 2.11839,-6.15272 0,-5.16631 -1.98475,-7.92835 -5.35531,-7.45259 -2.31815,0.32721 -2.62198,0.94313 -2.90769,5.89442 -0.31521,5.46261 1.01944,9.82928 3.0043,9.82928 0.56206,0 1.9752,-0.95328 3.14031,-2.11839 z m -231.75151,-3.38942 c -0.98858,-0.98858 -1.55349,-0.98858 -2.54207,0 -0.98857,0.98857 -0.70613,1.27103 1.27103,1.27103 1.97717,0 2.25961,-0.28246 1.27104,-1.27103 z m 245.73287,0 c -0.98858,-0.98858 -1.55349,-0.98858 -2.54207,0 -0.98857,0.98857 -0.70613,1.27103 1.27104,1.27103 1.97716,0 2.2596,-0.28246 1.27103,-1.27103 z M 235.95671,562.18837 c 6.24655,-3.23021 7.31914,-11.34754 2.17866,-16.48801 -5.05039,-5.0504 -14.45807,-3.79508 -17.6376,2.35348 -5.30157,10.25211 4.91052,19.58932 15.45894,14.13453 z m 287.10169,-1.49636 c 4.92276,-4.92276 3.7135,-13.44104 -2.35348,-16.57841 -7.76829,-4.01714 -16.79348,0.38283 -16.79348,8.18719 0,5.22076 1.33425,7.81556 5.0578,9.83626 4.92464,2.67251 10.54841,2.09571 14.08916,-1.44504 z M 298.21325,417.10611 c 16.65735,-2.50894 19.23596,-2.60078 73.61394,-2.62182 54.77478,-0.0212 56.87806,0.0535 75.15134,2.66977 15.56495,2.22849 19.82694,2.50164 24.77156,1.58757 3.28467,-0.6072 6.6217,-1.64309 7.41562,-2.30198 1.11894,-0.92865 1.44348,-5.40955 1.44348,-19.93001 l 0,-18.73201 -11.38633,-11.15583 -11.38633,-11.15584 -14.29911,-2.78512 c -20.24044,-3.94236 -31.80177,-4.99753 -61.96282,-5.65519 -31.00836,-0.67615 -57.42895,1.18156 -79.9691,5.62283 l -14.29911,2.81748 -11.38633,11.15584 -11.38633,11.15583 0.0162,18.59691 c 0.008,10.2283 0.36638,19.12395 0.79439,19.76812 0.91875,1.38277 7.91872,3.33693 12.42931,3.46984 1.74767,0.0514 10.94549,-1.07637 20.4396,-2.50639 z"
       style="fill:#ff9292;fill-opacity:1"
       sodipodi:nodetypes="cssssscsscccccccccscsscssssscsssscccccccccsscsssssscssssssscssscsscscsssssssccccsscccccsccsssssssssssssssssssssssssssscssscscccsssccccsccc" />
    <path
       inkscape:connector-curvature="0"
       id="path4233"
       d="m 195.26509,697.61362 c -2.36304,-2.56358 -5.31325,-6.65422 -6.55605,-9.0903 -2.79161,-5.47201 -5.97465,-19.90285 -6.96039,-31.55607 -0.69931,-8.26709 3.35058,-8.89385 0.23507,-11.02714 -5.97417,-4.09073 -10.07831,-1.93978 -12.40621,-7.38143 l -2.65188,-5.19855 2.4336,-5.19584 c 2.41451,-5.15507 2.4714,-5.19457 7.25221,-5.03447 2.65024,0.0888 5.34313,0.11901 5.98421,0.0673 0.7428,-0.06 -2.84992,-5.10019 -2.3856,-13.89541 l 0.72861,-13.8013 -5.81736,-10.8453 -5.81735,-10.84531 1.61665,-20.08237 1.61664,-20.08238 5.63131,-10.08428 c 3.09722,-5.54636 6.70758,-12.61311 8.02304,-15.70391 1.9676,-4.62311 4.101,-7.01782 12.03108,-13.50471 l 9.63937,-7.88511 12.36131,0 c 6.79873,0 13.11526,-0.28931 14.03674,-0.64292 1.40882,-0.54062 1.67834,-2.85811 1.69381,-14.56391 0.0112,-8.46026 0.65209,-16.82939 1.63388,-21.33534 0.88852,-4.0779 2.5768,-13.84896 3.75174,-21.71347 1.17493,-7.86451 4.4911,-25.7291 7.36926,-39.6991 2.87816,-13.96998 5.23302,-25.50121 5.23302,-25.62494 0,-1.09544 16.84247,-12.98455 22.25709,-15.71132 19.75698,-9.94945 61.02438,-17.42657 96.33912,-17.45539 24.88514,-0.0203 56.09857,3.98429 74.62081,9.57365 17.25644,5.20737 26.61301,9.65895 36.27328,17.25773 7.01777,5.52019 7.67946,6.3892 8.78708,11.54032 4.99281,23.2196 10.69186,52.72841 11.71528,60.66001 0.67571,5.23676 2.13855,13.68691 3.25075,18.7781 1.42914,6.542 2.0222,13.42032 2.0222,23.45373 0,11.96872 0.26297,14.29792 1.67542,14.83993 0.92148,0.35361 7.23692,0.64577 14.03432,0.64926 l 12.35888,0.006 9.23226,7.50697 c 9.2104,7.48922 9.25238,7.54583 17.7439,23.92082 l 8.51165,16.41383 1.54044,19.73886 1.54044,19.73884 -5.83147,10.87164 -5.83149,10.87164 0.7361,13.51552 c 0.40485,7.43355 1.1769,13.80283 1.71565,14.15398 0.53873,0.35116 2.87766,0.29137 5.19759,-0.13286 4.87404,-0.89129 2.53259,-0.16245 5.34512,6.07463 1.90156,4.21691 1.89714,4.27403 -0.72958,9.42313 -2.681,5.25552 -5.57124,3.27562 -11.54112,7.3634 -3.11582,2.13352 -3.34524,2.75923 -4.04308,11.02714 -1.7013,20.15666 -2.25243,32.1017 -9.95851,40.46181 l -4.46657,4.84564 -15.05924,0 c -16.99279,0 -16.95577,0.0157 -19.96452,-8.47354 -1.82608,-5.15229 -4.43073,-18.19142 -5.50113,-27.53903 -1.14531,-10.00184 -1.01404,-9.84143 -7.6062,-9.29475 -6.54265,0.54257 -9.39112,1.64907 -9.41485,7.40389 -0.0204,4.96023 -0.31189,6.12763 -8.73049,6.12763 -6.69167,0 -7.59731,-0.69444 -7.59731,-5.82556 0,-5.58555 -0.50653,-5.82557 -12.29405,-5.82557 -9.47699,0 -11.24594,0.27793 -12.71736,1.99802 -6.57988,7.69199 -2.84328,6.77379 -40.17639,9.49877 l -33.9416,2.44618 -34.37638,-2.42503 c -37.88049,-2.67221 -33.96918,-1.75532 -40.61117,-9.51992 -1.47261,-1.7215 -3.24168,-1.99802 -12.78269,-1.99802 l -11.07353,0 -2.34284,3.97198 c -1.12456,1.90653 -0.74033,4.68693 -0.85302,5.56077 -0.15224,1.1804 -0.20298,1.66968 -5.09587,1.90352 -8.70927,0.4162 -10.4506,-0.62915 -11.13301,-6.68342 -0.30113,-2.67162 0.85244,-5.15225 0.49217,-5.51252 -0.36027,-0.36027 -4.92114,-0.86827 -8.06397,-1.1289 -6.47965,-0.53735 -8.05903,-0.68026 -9.20221,9.30293 -1.07039,9.34761 -3.67505,22.38674 -5.50112,27.53903 -3.00876,8.48925 -1.27703,8.47354 -18.26982,8.47354 l -15.05924,0 -4.29643,-4.66107 z M 409.01202,644.0417 c 20.09819,-0.54696 41.90125,4.25693 48.97432,3.8752 12.2855,-0.66303 12.91259,-0.80919 14.03431,-3.27109 1.65774,-3.63833 1.46211,-6.13761 -0.6794,-8.68023 -1.84525,-2.19086 -2.07166,-2.1972 -50.31169,-1.41082 -26.65196,0.43446 -70.26425,0.43446 -96.9162,0 -48.24003,-0.78638 -48.46644,-0.78004 -50.31169,1.41082 -2.1446,2.54628 -2.33705,5.04208 -0.6708,8.69911 1.14041,2.5029 1.68128,2.62227 15.09351,3.33109 11.47183,0.60629 36.61316,-4.17956 78.4199,-3.10881 3.20406,0.0821 22.26954,-0.29831 42.36774,-0.84527 z m -140.09772,1.56911 c 1.35737,-3.43632 1.80249,-21.75913 0.63043,-25.95024 -0.64652,-2.3118 -1.44181,-2.91278 -3.85465,-2.91278 -4.68611,0 -7.32154,2.96223 -8.95225,10.06234 -0.94133,4.09858 -1.94109,6.24241 -2.81561,6.03763 -2.01754,-0.47244 -38.5852,-2.26551 -46.91225,-2.30031 -8.46056,-0.0353 -8.43641,0.85427 0.13968,5.14211 9.39105,4.69531 15.5361,6.32842 30.37465,8.07237 l 13.76951,1.61832 2.27053,-2.806 2.27051,-2.80598 1.30797,2.52406 c 2.3093,4.45644 4.89662,0.66754 8.00927,0.66754 2.33092,0 2.87991,4.88458 3.76221,2.65094 z m 216.87032,0.17745 c 1.18339,-1.50443 2.45698,-3.69745 2.83021,-4.87337 0.62019,-1.95409 0.85499,-1.84797 2.72886,1.23334 1.85662,3.05298 2.42191,3.31581 5.98501,2.78271 2.16413,-0.32378 8.68104,-1.12164 14.48205,-1.773 11.46226,-1.28705 20.6862,-4.17793 28.76951,-9.01665 l 5.16932,-3.09439 -4.62982,-0.33196 c -4.54307,-0.32576 -47.18247,1.49231 -49.88496,2.127 -0.87575,0.20566 -1.83179,-1.6041 -2.62687,-4.97262 -1.68603,-7.14317 -3.33709,-9.91535 -6.35675,-10.67323 -4.58779,-1.15145 -6.26202,-0.15245 -7.246,4.32367 -1.09572,4.98447 -0.30588,19.95521 1.27173,24.10466 1.50215,3.95094 6.46156,4.03641 9.50771,0.16384 z M 328.38306,629.98771 c 0.12753,-0.58256 -2.64121,-2.93531 -6.15277,-5.22831 l -6.38463,-4.16912 -22.21359,-43.35383 c -12.21746,-23.8446 -24.524,-47.1467 -27.34783,-51.78243 -5.55534,-9.11987 -8.66044,-11.63664 -23.99357,-19.44734 -7.21231,-3.67394 -8.87069,-4.08611 -18.00629,-4.47519 -9.20234,-0.39191 -10.36996,-0.21662 -13.66158,2.05103 -1.97958,1.36375 -5.07772,5.10106 -6.88475,8.30512 -2.87646,5.10025 -3.26255,6.73211 -3.10099,13.10669 0.10147,4.00462 0.58992,7.68652 1.0854,8.182 0.49548,0.49548 3.80234,-0.27108 7.34858,-1.70347 11.54886,-4.66479 25.81443,-5.61933 36.39721,-2.43539 2.03895,0.61343 6.16591,2.94616 9.17102,5.18382 14.06609,10.47384 15.39188,29.89505 3.0148,44.16336 -6.0347,6.95683 -21.53751,16.77283 -28.86142,18.27435 -9.10272,1.86622 -8.97598,1.79688 -8.15447,4.46047 1.06043,3.43823 8.53872,16.0933 10.44489,17.67528 1.65928,1.37707 20.19012,3.38579 22.63311,2.45338 0.74974,-0.28615 2.09271,-1.93106 2.98437,-3.65535 1.07025,-2.06964 2.16625,-2.92592 3.22504,-2.51963 0.8821,0.3385 4.08184,0.61545 7.11054,0.61545 5.11292,0 5.59024,0.22126 6.67463,3.09416 1.00323,2.65785 1.89478,3.19666 6.32258,3.82111 2.83506,0.39982 13.73413,2.54537 24.22015,4.76788 19.20907,4.07137 23.70429,4.55871 24.12957,2.61596 z m 111.5609,-2.5377 c 11.00603,-2.26957 22.33056,-4.45197 25.16562,-4.84979 4.42936,-0.62153 5.31899,-1.15867 6.32258,-3.81746 1.08438,-2.87289 1.56171,-3.09416 6.67463,-3.09416 3.0287,0 6.22844,-0.27695 7.11054,-0.61545 1.05879,-0.40629 2.15478,0.44999 3.22504,2.51963 0.89166,1.72429 2.23463,3.3692 2.98437,3.65535 0.74975,0.28616 5.8031,0.15138 11.22966,-0.29949 6.89998,-0.57328 10.46417,-1.36064 11.85429,-2.61867 2.73488,-2.47503 10.85111,-18.30038 10.05019,-19.59627 -0.35738,-0.57827 -1.7375,-1.05139 -3.06692,-1.05139 -8.1076,0 -26.49236,-10.61938 -34.55667,-19.96056 -5.3245,-6.1676 -9.0327,-17.18768 -8.00875,-23.80064 1.69088,-10.9203 8.44755,-19.38555 19.33794,-24.22797 9.20735,-4.09407 29.26415,-2.81381 39.92998,2.54879 2.47371,1.24374 4.48155,1.67685 5.0657,1.0927 0.53224,-0.53224 1.06783,-4.2791 1.19022,-8.32634 0.20339,-6.72649 -0.0994,-7.90187 -3.52469,-13.68203 -4.55761,-7.69095 -7.92763,-9.18205 -21.18023,-9.37151 -8.74503,-0.12502 -9.36143,0.0297 -18.00629,4.52219 -14.14036,7.34822 -17.34468,9.96197 -22.53819,18.38427 -4.10267,6.6533 -20.99065,39.00195 -43.27716,82.89669 -6.11217,12.03831 -6.80583,12.95102 -12.87969,16.94709 -6.77739,4.45892 -8.59213,6.87151 -5.16869,6.87151 1.13056,0 11.0605,-1.85693 22.06652,-4.12649 z m -55.34466,-20.8431 c 3.57942,-0.91703 8.41459,-2.78895 10.74482,-4.1598 6.00576,-3.53314 18.42898,-16.52182 25.32552,-26.47827 18.44993,-26.63585 24.0313,-41.88475 25.62003,-69.99653 0.72743,-12.87166 0.14285,-17.87796 -3.40364,-29.14821 -1.80259,-5.72844 -3.05609,-6.45553 -15.38087,-8.92156 -4.87233,-0.97489 -13.14852,-2.73488 -18.39153,-3.91107 -18.18626,-4.07982 -57.64308,-3.74821 -76.26192,0.64095 -3.49534,0.82398 -10.34162,2.29567 -15.21395,3.27039 -11.97293,2.39526 -13.58124,3.27151 -15.40777,8.39457 -3.41234,9.57095 -4.11699,15.68993 -3.41166,29.62604 1.11978,22.12488 7.04254,42.2732 16.62036,56.53983 2.24913,3.35018 6.29807,9.4277 8.99765,13.50559 5.42895,8.20077 19.11131,22.68704 24.75194,26.20626 8.9594,5.5898 23.69341,7.43381 35.41102,4.43181 z M 237.53338,569.2271 c 11.60103,-5.27023 16.49698,-20.00915 10.12639,-30.48474 -4.72158,-7.764 -20.89069,-10.82788 -30.60506,-5.79932 -5.66024,2.92996 -7.91502,7.64311 -7.96231,16.64363 -0.0836,15.89646 14.5055,25.97119 28.44098,19.64043 z m 289.17924,-1.21983 c 5.76333,-3.56193 9.23532,-10.41896 9.27073,-18.30923 0.0597,-13.30421 -5.73548,-18.9934 -19.47542,-19.11923 -17.89701,-0.16387 -27.13797,13.84686 -19.18006,29.08001 2.39955,4.59327 4.02803,6.21369 8.73834,8.69513 4.91815,2.59091 6.62873,2.96617 11.3691,2.49411 3.06895,-0.30562 7.24374,-1.58398 9.27731,-2.84079 z M 304.78308,431.5833 c 10.3879,-2.66349 15.29867,-3.2584 33.36459,-4.04195 45.18642,-1.9598 89.38026,-0.0518 112.71253,4.86637 8.3967,1.7699 17.69112,3.20663 20.65427,3.19272 6.21408,-0.0292 13.10437,-1.44231 14.67102,-3.00896 2.31567,-2.31567 0.19532,-22.3864 -2.36499,-22.3864 -0.5191,0 -1.09652,-7.38655 -1.28317,-16.41454 l -0.33935,-16.41453 -11.65113,-11.61912 -11.65113,-11.61911 -15.8879,-3.13641 c -20.66416,-4.07931 -38.14833,-5.40709 -71.20014,-5.40709 -31.91077,0 -46.9975,1.16714 -69.12317,5.34753 l -16.39769,3.09815 -11.67093,11.66803 -11.67095,11.66802 -0.33935,16.41453 c -0.18665,9.02799 -0.76407,16.41454 -1.28317,16.41454 -2.31913,0 -4.9876,20.75133 -2.93281,22.8069 3.71599,3.71737 29.40912,2.92616 46.39347,-1.42868 z m 145.1095,-83.29148 c 0,-2.17756 -26.2979,-10.02538 -44.40657,-13.2518 -18.48499,-3.29347 -49.03077,-3.07735 -68.06222,0.48156 -7.75765,1.45069 -16.48801,3.36581 -19.40079,4.25583 -8.22263,2.51247 -19.76807,7.05615 -19.24887,7.57533 0.2572,0.25722 4.69343,-0.23275 9.85826,-1.08881 14.71273,-2.43858 26.7133,-2.97973 64.91909,-2.92744 36.00807,0.0492 53.45193,1.01057 67.86755,3.74007 4.36917,0.82726 8.06311,1.54713 8.20875,1.59971 0.14564,0.0525 0.2648,-0.12043 0.2648,-0.38445 z"
       style="fill:#ff2727;fill-opacity:1"
       sodipodi:nodetypes="csssscsscscccccssscssssssssssssssssccsscccccscsssssscsssssssssscssscssssssssscccssssssssscssssssssscccssssssssscscssssssscsssssssssssssssssssssssssssssssscsssssssssssssssssssssssssssssscsssccsssssssssssssscccssscccsssssssscssscs" />
    <path
       inkscape:connector-curvature="0"
       id="path4231"
       d="m 196.05922,703.33685 c -2.27342,-2.47586 -5.17028,-6.18777 -6.43747,-8.24868 -2.84075,-4.62013 -6.22237,-19.62846 -7.21515,-32.02238 l -0.74413,-9.28967 -5.96328,-4.47984 c -4.3366,-3.25784 -6.80232,-6.15861 -9.03918,-10.63407 -2.71177,-5.42563 -2.89086,-6.33924 -1.51272,-7.71739 1.37816,-1.37815 2.01406,-1.13801 5.37151,2.02848 9.88048,9.31849 38.2448,16.89746 68.67529,18.35011 l 14.85779,0.70926 1.45363,3.47902 c 1.14333,2.7364 2.39238,3.73182 5.85137,4.66323 5.68227,1.53007 6.94273,0.48546 8.50715,-7.05035 1.25494,-6.045 1.59531,-6.25684 3.59333,-2.23655 1.13003,2.27379 1.98339,2.43652 15.99492,3.04997 41.58062,1.82048 97.69776,2.23504 137.66764,1.01701 l 42.36774,-1.2911 2.24489,-2.67892 2.24491,-2.67892 0.72435,4.08074 c 1.53934,8.67204 2.56015,9.54487 9.10263,7.78317 2.81682,-0.7585 4.65232,-2.14334 6.1057,-4.60664 l 2.0781,-3.52211 14.17035,-0.69798 c 20.90578,-1.02974 42.58081,-5.20432 54.8439,-10.56287 5.47632,-2.39295 11.63836,-5.93662 13.69344,-7.8748 3.32029,-3.13145 3.91335,-3.3471 5.3243,-1.93615 2.63449,2.63449 -3.15705,12.63482 -10.58849,18.28327 l -5.95129,4.52343 -0.74026,9.28967 c -0.99559,12.49378 -4.24417,27.15831 -7.06582,31.89611 -1.26876,2.13036 -4.23927,5.89909 -6.60115,8.37495 l -4.29431,4.50157 -12.42083,0 c -14.80911,0 -17.40976,-0.79476 -19.57751,-5.98295 -2.19756,-5.25946 -5.38852,-20.38217 -6.29486,-29.83271 -0.9584,-9.9932 -2.05959,-11.13094 -9.85883,-10.18599 -3.27545,0.39685 -6.1832,0.92945 -6.46167,1.18354 -0.27849,0.25408 -0.75513,2.93506 -1.0592,5.95775 l -0.55287,5.49577 -7.67915,0.3112 -7.67916,0.31121 0,-3.15503 c 0,-1.73527 -0.48478,-4.4301 -1.07729,-5.98852 l -1.07728,-2.8335 -11.79654,0.40378 c -10.15486,0.34757 -11.95803,0.67982 -12.95702,2.38741 -0.63827,1.091 -2.11377,3.09153 -3.27888,4.4456 -2.04133,2.37242 -3.36095,2.55325 -36.27737,4.97114 l -34.15899,2.50918 -34.15899,-2.50918 c -32.91642,-2.41789 -34.23604,-2.59872 -36.27737,-4.97114 -1.16511,-1.35407 -2.64669,-3.36468 -3.2924,-4.46802 -1.04319,-1.78252 -2.51859,-2.00606 -13.23992,-2.00606 l -12.0659,0 -0.9947,5.60312 -0.99469,5.60313 -7.47885,-0.30716 -7.47886,-0.30716 -0.55287,-5.49577 c -0.30408,-3.02269 -0.78071,-5.70367 -1.0592,-5.95775 -0.27847,-0.25409 -3.18622,-0.78669 -6.46167,-1.18354 -7.79924,-0.94496 -8.90043,0.19279 -9.85883,10.18599 -0.90634,9.45053 -4.0973,24.57325 -6.29486,29.83271 -2.16977,5.19298 -4.766,5.98295 -19.66315,5.98295 l -12.50647,0 -4.13351,-4.50157 z M 271.9643,630.7821 c 0.008,-0.43691 0.41923,-1.43015 0.9118,-2.2072 0.72999,-1.15158 1.00725,-1.12176 1.4996,0.16126 0.3322,0.86571 0.31909,1.85896 -0.0292,2.20719 -0.8907,0.8907 -2.40163,0.78843 -2.38225,-0.16125 z m 199.19577,-0.88265 c 0.0508,-1.23391 0.3018,-1.48489 0.63992,-0.63993 0.30597,0.76459 0.26834,1.67816 -0.0835,2.03011 -0.35196,0.35196 -0.6023,-0.27362 -0.55631,-1.39018 z m -272.64263,-3.88372 c -1.30261,-1.31074 -4.38278,-6.06138 -6.8448,-10.55697 -2.46203,-4.49557 -5.62993,-9.87358 -7.03976,-11.9511 -1.40986,-2.07753 -2.89913,-5.30605 -3.30952,-7.17451 -0.41037,-1.86845 -3.11082,-7.55617 -6.00098,-12.63938 l -5.25485,-9.24219 1.69286,-20.38079 c 1.54486,-18.59922 1.93081,-20.74037 4.4151,-24.4944 1.49725,-2.26248 2.87786,-3.95071 3.06802,-3.75163 0.19018,0.1991 -0.54914,4.41341 -1.64292,9.36514 -3.36454,15.23186 -3.02276,17.53705 4.69204,31.64627 3.70213,6.77064 12.12246,22.95752 18.71186,35.97085 13.10748,25.88587 13.04842,25.54495 4.43107,25.57568 -3.32487,0.0119 -5.18733,-0.62537 -6.91811,-2.36697 z m 335.16186,1.41466 c -1.18711,-0.75167 -0.4713,-2.67862 3.6335,-9.78131 2.81152,-4.86488 10.9838,-20.39609 18.16064,-34.5138 14.83123,-29.17482 14.48633,-27.67914 10.91432,-47.33043 -1.15626,-6.36117 -2.10229,-11.79722 -2.10229,-12.08009 0,-0.28288 0.9092,0.3085 2.02044,1.31417 4.42954,4.00867 6.12205,10.94452 7.44912,30.52638 l 1.27317,18.78662 -5.23056,9.28201 c -2.87681,5.1051 -5.57205,10.95023 -5.98944,12.98918 -0.41737,2.03894 -2.0813,5.61372 -3.69761,7.94395 -1.61631,2.33022 -4.95884,7.93582 -7.42786,12.45688 -2.46901,4.52106 -5.50256,8.92996 -6.7412,9.79754 -2.46476,1.72639 -9.91327,2.09625 -12.26223,0.6089 z M 211.04447,594.21721 c -12.15954,-4.99835 -18.75115,-12.80308 -20.64184,-24.44075 -1.10454,-6.79873 0.44882,-14.75197 3.85895,-19.75785 l 2.52541,-3.70718 -0.81522,3.70718 c -1.45196,6.6028 -0.84114,17.19926 1.2211,21.18386 3.17823,6.14088 5.98308,8.41174 13.10775,10.61232 12.48366,3.85581 29.76258,2.47571 38.50579,-3.07553 9.2759,-5.88945 14.03994,-21.48601 10.05436,-32.91607 -1.98596,-5.69546 -1.62194,-6.47637 1.15864,-2.48554 3.07127,4.4081 4.52419,9.51276 4.43374,15.57735 -0.17282,11.58722 -5.40606,19.11459 -20.08248,28.88621 l -10.72814,7.14284 -9.71024,0.28968 c -5.93887,0.17717 -10.94438,-0.21765 -12.88782,-1.01652 z m 301.23446,0.37984 c -1.51472,-0.48588 -7.15036,-3.83948 -12.52363,-7.45245 -13.55222,-9.11251 -18.89352,-16.9568 -19.06553,-27.99997 -0.0977,-6.26725 1.52549,-12.06254 4.35302,-15.54236 l 2.10191,-2.58681 -0.68791,2.64799 c -1.56054,6.0071 -1.83517,16.76656 -0.53012,20.76921 2.39895,7.3577 6.9132,12.7345 13.32564,15.87181 10.95489,5.35973 33.27245,4.63374 42.45206,-1.38097 4.815,-3.15491 8.05898,-10.35521 8.17606,-18.14751 0.0583,-3.87762 -0.30252,-8.65891 -0.80173,-10.6251 -1.21882,-4.80043 0.38282,-3.61011 3.47595,2.58327 5.1142,10.2402 2.3633,25.44549 -6.07613,33.58508 -6.73718,6.49781 -12.22916,8.6851 -22.4424,8.93814 -4.95173,0.12268 -10.24247,-0.17447 -11.75719,-0.66033 z M 264.58255,515.87007 c -0.84314,-1.31651 -5.31234,-8.58992 -9.93154,-16.16315 -4.61919,-7.57323 -8.93246,-14.11969 -9.58504,-14.54769 -0.65258,-0.428 -2.73558,-0.78548 -4.62889,-0.7944 l -3.44238,-0.0162 0.0162,-13.50472 c 0.008,-7.4276 0.41185,-14.12854 0.8954,-14.89099 0.59094,-0.93178 2.54776,2.36714 5.96868,10.06234 2.79922,6.29674 9.0862,20.21542 13.97107,30.9304 8.08238,17.72877 10.72469,25.15165 6.73647,18.92443 z m 213.90825,1.61166 c 0,-0.68905 2.91138,-7.59177 6.46974,-15.33938 7.61775,-16.58611 18.7561,-41.5803 20.18597,-45.29688 1.90408,-4.94914 2.96873,0.0428 2.98549,13.99843 l 0.0162,13.50471 -3.44238,0.0162 c -1.89331,0.008 -3.98293,0.3664 -4.64359,0.79439 -0.66068,0.428 -4.61295,6.43342 -8.78284,13.34537 -9.35663,15.50943 -12.7886,20.60219 -12.7886,18.97715 z"
       style="fill:#606060" />
    <ellipse
       style="fill:#ffffff;fill-opacity:1;stroke:none;stroke-width:14;stroke-linecap:round;stroke-miterlimit:4;stroke-dasharray:none;stroke-opacity:1"
       id="path4240"
       ry="31.170547"
       rx="34.499443"
       cy="559.7027"
       cx="227.008" />
    <ellipse
       cx="517.22699"
       cy="558.49225"
       rx="36.315205"
       ry="31.170547"
       id="ellipse4244"
       style="fill:#ffffff;fill-opacity:1;stroke:none;stroke-width:14;stroke-linecap:round;stroke-miterlimit:4;stroke-dasharray:none;stroke-opacity:1" />
    <circle
       style="fill:none;fill-opacity:1;stroke:#000000;stroke-width:20;stroke-linecap:round;stroke-miterlimit:4;stroke-dasharray:none;stroke-opacity:1"
       id="path4252"
       cx="373"
       cy="516.79077"
       r="274.41409" />
    <path
       sodipodi:nodetypes="cc"
       style="fill:none;fill-rule:evenodd;stroke:#000000;stroke-width:10;stroke-linecap:butt;stroke-linejoin:miter;stroke-miterlimit:4;stroke-dasharray:none;stroke-opacity:1"
       d="m 50.428571,513.79078 641.956619,0"
       id="path4286"
       inkscape:connector-curvature="0" />
    <path
       inkscape:connector-curvature="0"
       id="path4347"
       d="m 371.40688,192.81247 0,641.95662"
       style="fill:none;fill-rule:evenodd;stroke:#000000;stroke-width:10;stroke-linecap:butt;stroke-linejoin:miter;stroke-miterlimit:4;stroke-dasharray:none;stroke-opacity:1"
       sodipodi:nodetypes="cc" />
  </g>
</svg>
